<svg width="193" height="115" xmlns="http://www.w3.org/2000/svg"><g fill-rule="nonzero" fill="none"><path d="M0 57.21C0 25.61 26.32 0 58.79 0s58.79 25.61 58.79 57.21-26.32 57.21-58.79 57.21S0 88.8 0 57.21" fill="#EB225A"/><path fill="#ABA2A4" d="M8.62 42.78h3.99v29.64H8.62zM31.89 68.84L32 72c-2.76.5-5.555.795-8.36.88-6.3 0-8.57-3.53-8.57-10.79C15 54.25 18.4 51 24 51c5.8 0 8.7 3 8.7 9.7l-.25 2.9H19.07c0 3.78 1.35 5.62 5.09 5.62 3.23 0 7.73-.37 7.73-.37v-.01zm-3.15-8.35c0-4.37-1.39-6-4.75-6-3.36 0-4.92 1.72-5 6h9.75z"/><path d="M73 43.1l-.17 3.44s-3.32-.37-4.91-.37c-4.58 0-5.72 1.8-5.72 6.88 0 5.59.93 7.47 5.76 7.47 1.6 0 4.91-.33 4.91-.33l.13 3.46a53.52 53.52 0 0 1-6.12.66c-6.56 0-8.7-3.14-8.7-11.25 0-7.6 2.52-10.63 8.77-10.63a49.26 49.26 0 0 1 6 .68M92.71 53.18c0 7.05-2 11.13-9.16 11.13s-9.24-3.91-9.24-11.13c0-7 2.35-10.76 9.24-10.76 6.64 0 9.16 3.82 9.16 10.76m-4 0c0-5-1.38-7.18-5.12-7.18-4 0-5.21 2-5.21 7.18s.89 7.52 5.21 7.52 5.12-2.52 5.12-7.52M94.84 42.9h4v1.26a13.59 13.59 0 0 1 5.75-1.73c5.38 0 7.86 3 7.86 10.71 0 8.49-2.86 11.17-9.29 11.17a24.73 24.73 0 0 1-4.32-.46v10h-4V42.9zm4 4.53v12.94a37.7 37.7 0 0 0 4.07.33c4.16 0 5.46-2.05 5.46-7.6 0-5.25-1.64-7.06-4.45-7.06a14.11 14.11 0 0 0-5.08 1.39z" fill="#FFF"/><path d="M50.8 64.7a5.33 5.33 0 0 0-.27-.86c-.67-1.61-2-2.42-4.12-2.87a29.22 29.22 0 0 0-3.45-.48l-1.51-.14c-2.52-.3-3.19-.77-3.31-2.27-.18-2.26 1.2-3 4.38-3.29 1.76-.14 5.52.05 6.78.12l-1.51-.14a27.82 27.82 0 0 1-3.45-.48c-2.12-.46-3.45-1.27-4.12-2.87-4.07.69-6.38 2.76-6 7.09.32 4.11 2.3 5.22 7.9 5.66 3.86.33 4.85.71 5 2.31.16 2-1.3 2.79-3.82 3a72.88 72.88 0 0 1-7.47-.09l.18 3.35a53.39 53.39 0 0 0 7.82.28c4-.31 7.63-2.24 7.26-6.93a8.15 8.15 0 0 0-.21-1.4" fill="#ABA2A4"/><path d="M56.57 56.75c-.32-4.11-2.3-5.22-7.9-5.67-3.86-.33-4.86-.72-5-2.32-.17-2 1.3-2.79 3.81-3a73.5 73.5 0 0 1 7.47.09l-.18-3.36a54.06 54.06 0 0 0-7.77-.25c-4 .31-7.62 2.24-7.26 6.93.031.472.102.94.21 1.4.072.293.166.58.28.86a4.55 4.55 0 0 0 3.15 2.62H44.36a26.67 26.67 0 0 0 3.45.48c3.77.3 4.69.65 4.83 2.41.18 2.26-1.2 3-4.38 3.29-1.76.13-5.54-.06-6.79-.14l1.51.14a29.23 29.23 0 0 1 3.42.77c2.12.46 3.45 1.26 4.12 2.88 4.06-.7 6.37-2.77 6-7.1M60.84 89.76a2.66 2.66 0 0 0 .72-2.06 2 2 0 0 0-.6-1.62c0-.05-.13-.08-.17-.12l-.39-.21a6.24 6.24 0 0 0-1.26-.46 3.65 3.65 0 0 1-1.79-.75l.1.11a1.11 1.11 0 0 1-.21-.26l.09.11a1.46 1.46 0 0 1-.24-.9c0-.92.59-1.34 1.79-1.34.72 0 2.36.2 2.37.2l.09-.9a19.47 19.47 0 0 0-2.47-.26h-.31l-.6.08a2.08 2.08 0 0 0-.45.13 2 2 0 0 0-.51.24.61.61 0 0 0-.17.08 2.13 2.13 0 0 0-.77 1.79 2.18 2.18 0 0 0 .64 1.77 5.16 5.16 0 0 0 2 .83 5.88 5.88 0 0 1 1.13.35h.11c.104.059.198.133.28.22a.59.59 0 0 1 .15.19c.048.085.085.176.11.27v.44c0 1.14-.55 1.67-1.74 1.67a24.68 24.68 0 0 1-2.58-.23l-.09.89c.898.134 1.803.22 2.71.26a2.88 2.88 0 0 0 2-.63m-3.7-5.63c0-.1 0-.2-.05-.32a2.6 2.6 0 0 0 .05.32M65.88 81.28a3.07 3.07 0 0 0-2.77 1.21 6 6 0 0 0-.73 3.4 5.79 5.79 0 0 0 .71 3.36 2.4 2.4 0 0 0 1.08.87 4.35 4.35 0 0 0 1.7.29 3.09 3.09 0 0 0 2.76-1.12 5.84 5.84 0 0 0 .72-3.39 6.06 6.06 0 0 0-.72-3.4 3.06 3.06 0 0 0-2.76-1.21m2.44 4.61c0 2.35-.38 3.54-2.44 3.54s-2.44-1.24-2.44-3.54.41-3.63 2.44-3.63 2.44 1.39 2.44 3.63M75.83 90.11v-.89a20.38 20.38 0 0 1-2.24.23c-2 0-2.32-1.14-2.32-3.55s.35-3.6 2.3-3.6c.76.02 1.52.093 2.27.22l.06-.86a13 13 0 0 0-2.42-.29 2.75 2.75 0 0 0-2.6 1.18 6.53 6.53 0 0 0-.64 3.41 6.46 6.46 0 0 0 .63 3.37 2.78 2.78 0 0 0 2.61 1.16 15.59 15.59 0 0 0 2.41-.29M76.99 81.4h-.02v8.87h1.02V81.4h-.02zM79.77 81.4h-.02v8.87H85.11V89.3H80.75v-3.03h3.6V85.31h-3.6v-2.94H85.11V81.4h-.02zM81.43 80.26l.01.01v-.01l2.78-1.14.02-.02v-.02l-.38-.87v-.02l-.01.02-2.77 1.2-.02.01v.01zM88.04 90.25v.02h1v-7.89h2.68v-.98H85.35v.98h2.69zM97.7 90.27h.02V89.3H93.36v-3.03h3.6V85.31h-3.6v-2.94H97.72V81.4H92.35v8.87h.02zM94.02 80.26l.02.01.01-.01 2.78-1.14.01-.02v-.02l-.37-.87v-.02l-.03.02-2.76 1.2-.01.01v.01zM104.14 87.69a2 2 0 0 0-.6-1.62c-.05-.05-.13-.08-.18-.12l-.39-.21a6.36 6.36 0 0 0-1.26-.46 3.55 3.55 0 0 1-1.77-.75.52.52 0 0 0 .09.11 1 1 0 0 1-.21-.26l.09.11a1.45 1.45 0 0 1-.24-.9c0-.92.58-1.34 1.78-1.34.73 0 2.36.2 2.38.2l.09-.9a19.21 19.21 0 0 0-2.48-.26h-.29l-.6.08a2 2 0 0 0-.46.13 1.91 1.91 0 0 0-.52.24s-.11 0-.16.08a2.1 2.1 0 0 0-.77 1.79 2.18 2.18 0 0 0 .63 1.77 5.26 5.26 0 0 0 2 .83 6 6 0 0 1 1.14.35h.1a1.1 1.1 0 0 1 .29.22.85.85 0 0 1 .31.49c.008.08.008.16 0 .24a1.1 1.1 0 0 1 0 .2c0 1.14-.56 1.67-1.74 1.67a24.82 24.82 0 0 1-2.58-.23l-.1.89a25.31 25.31 0 0 0 2.71.26 2.89 2.89 0 0 0 2-.63 2.65 2.65 0 0 0 .71-2.06m-4.41-3.57" fill="#FFF"/><path d="M119.41 90.1v-.89a20.55 20.55 0 0 1-2.24.23c-2 0-2.32-1.14-2.32-3.55s.34-3.6 2.29-3.6c.761.019 1.52.092 2.27.22v-.86a12.77 12.77 0 0 0-2.43-.3 2.74 2.74 0 0 0-2.58 1.18 6.53 6.53 0 0 0-.64 3.41 6.53 6.53 0 0 0 .63 3.37 2.76 2.76 0 0 0 2.6 1.16 16 16 0 0 0 2.43-.29l-.01-.08zM126.39 89.27a5.88 5.88 0 0 0 .7-3.39 6.14 6.14 0 0 0-.7-3.4 3.77 3.77 0 0 0-5.54 0 6 6 0 0 0-.72 3.4 5.81 5.81 0 0 0 .71 3.36c.264.388.636.69 1.07.87a4.36 4.36 0 0 0 1.71.29 3.11 3.11 0 0 0 2.77-1.12m-.33-3.39c0 2.35-.37 3.54-2.44 3.54s-2.44-1.24-2.44-3.54.41-3.63 2.44-3.63 2.44 1.39 2.44 3.63M129.73 90.11a4.36 4.36 0 0 0 1.71.29 3.08 3.08 0 0 0 2.75-1.12 5.78 5.78 0 0 0 .72-3.39 6.09 6.09 0 0 0-.72-3.4 3.76 3.76 0 0 0-5.53 0 6 6 0 0 0-.73 3.4 5.75 5.75 0 0 0 .72 3.36c.263.39.635.692 1.07.87m-.72-4.24c0-2.3.41-3.63 2.45-3.63s2.44 1.39 2.44 3.63-.38 3.54-2.44 3.54-2.45-1.24-2.45-3.54M139.46 87.32a2.72 2.72 0 0 0 2.13-.82 3.3 3.3 0 0 0 .7-2.24 2.9 2.9 0 0 0-.7-2.15 2.83 2.83 0 0 0-2.13-.71h-3.23v8.87h1v-3l2.23.05zm-2.22-1v-4h2.2c1.26 0 1.8.57 1.8 1.89 0 1.32-.6 2.08-1.8 2.08l-2.2.03zM148.84 90.27h.01V89.3H144.49v-3.03H148.09V85.31H144.49v-2.94H148.85V81.4h-5.35v8.87h.02zM145.17 80.26l.02.01v-.01l2.78-1.14.03-.02-.02-.02-.37-.87-.01-.02-.01.02-2.76 1.2-.02.01v.01zM155.32 90.26h1.13l-1.68-3.57a2.1 2.1 0 0 0 1.23-.9 3.14 3.14 0 0 0 .38-1.67 2.72 2.72 0 0 0-.69-2.07 3 3 0 0 0-2.13-.64h-3.26v8.87h1v-3.34h2.45l1.57 3.32zm-.44-4.73a1.84 1.84 0 0 1-1.33.44h-2.25v-3.6h2.24c1.24 0 1.78.53 1.78 1.74a2 2 0 0 1-.43 1.4l-.01.02zM161.56 81.42h-2.18L157 90.24h1l.63-2.2h3.65l.66 2.19h1l-2.38-8.81zm-1.41.93h.61l1.24 4.73h-3.19l1.34-4.73zM163.78 81.4h-.01v.98H166.47v7.89h1v-7.89H170.15v-.98h-.03zM170.71 81.4h-.01v8.87h1.01V81.4h-.02zM178.47 81.4h-.02v.02l-2.03 7.88h-.64l-2.06-7.88v-.02h-1.06l.01.03 2.33 8.82v.02h2.19v-.02l2.3-8.82.01-.03h-.03zM180.54 81.4h-.02v8.87H185.89V89.3H181.52v-3.03h3.61V85.31h-3.61v-2.94H185.89V81.4h-.02zM191.64 86.07a1 1 0 0 0-.18-.11 2.63 2.63 0 0 0-.38-.22 6.83 6.83 0 0 0-1.27-.46 3.48 3.48 0 0 1-1.78-.75l.09.12a1 1 0 0 1-.2-.27.65.65 0 0 0 .09.11 1.36 1.36 0 0 1-.24-.9c0-.92.58-1.34 1.78-1.34.72 0 2.36.2 2.38.2l.1-.9a19.62 19.62 0 0 0-2.48-.26c-1.84 0-2.8.8-2.8 2.35a2.14 2.14 0 0 0 .63 1.77 5.22 5.22 0 0 0 2 .83 6 6 0 0 1 1.14.35h.1c.11.057.212.131.3.22.03.062.057.125.08.19.045.086.082.177.11.27v.44c0 1.16-.55 1.67-1.76 1.67a24.83 24.83 0 0 1-2.57-.23l-.11.89a26 26 0 0 0 2.71.26 2.89 2.89 0 0 0 2-.63 2.63 2.63 0 0 0 .72-2.06 2 2 0 0 0-.59-1.62m-3.82-1.95" fill="#EB225A"/></g></svg>